<?xml version="1.0" encoding="utf-8"?>
<!-- Generator: Adobe Illustrator 25.3.1, SVG Export Plug-In . SVG Version: 6.00 Build 0)  -->
<svg version="1.1" xmlns="http://www.w3.org/2000/svg" xmlns:xlink="http://www.w3.org/1999/xlink" x="0px" y="0px"
	 viewBox="0 0 20 20" style="enable-background:new 0 0 20 20;" xml:space="preserve">
<style type="text/css">
	.st0{fill:#707070;}
</style>
<g id="레이어_1">
	<g id="레이어_4">
	</g>
	<g id="레이어_3">
	</g>
	<path class="st0" d="M19.1,10.4H0.9c-0.2,0-0.4-0.2-0.4-0.4v0c0-0.2,0.2-0.4,0.4-0.4h18.3c0.2,0,0.4,0.2,0.4,0.4v0
		C19.5,10.2,19.4,10.4,19.1,10.4z"/>
	<path class="st0" d="M19.1,17.3H0.9c-0.2,0-0.4-0.2-0.4-0.4l0,0c0-0.2,0.2-0.4,0.4-0.4h18.3c0.2,0,0.4,0.2,0.4,0.4l0,0
		C19.5,17.1,19.4,17.3,19.1,17.3z"/>
</g>
<g id="레이어_2">
	<path class="st0" d="M19.1,3.5H0.9c-0.2,0-0.4-0.2-0.4-0.4v0c0-0.2,0.2-0.4,0.4-0.4h18.3c0.2,0,0.4,0.2,0.4,0.4v0
		C19.5,3.3,19.4,3.5,19.1,3.5z"/>
</g>
</svg>
